<svg width="30" height="33" viewBox="0 0 30 33" fill="none" xmlns="http://www.w3.org/2000/svg">
<path d="M2.90765 29.9424L2.90757 29.9424C0.364123 27.1449 0.364179 22.5554 2.90753 19.7584L2.90757 19.7584L11.1825 10.657C12.0041 9.75339 13.0701 9.27834 14.1864 9.27834C15.3025 9.27834 16.3691 9.7535 17.1901 10.6568L17.1903 10.6571C18.0146 11.5633 18.4811 12.7824 18.4811 14.1019C18.4811 15.4212 18.0146 16.6396 17.1903 17.5459L17.1902 17.5461L10.5665 24.8324C10.5665 24.8324 10.5665 24.8324 10.5664 24.8325C10.5631 24.8362 10.5601 24.839 10.5577 24.8411C10.5553 24.839 10.5523 24.8361 10.5489 24.8324C10.5241 24.8051 10.4988 24.7535 10.4988 24.6817C10.4988 24.6099 10.5241 24.5583 10.5489 24.531C10.5489 24.531 10.5489 24.5309 10.5489 24.5309L17.1737 17.2449L17.1739 17.2447C17.9491 16.3916 18.3639 15.2709 18.3639 14.1019C18.3639 12.9325 17.9492 11.8118 17.1739 10.9586L17.1735 10.9582C16.3947 10.1021 15.3337 9.60775 14.1871 9.60775C13.0414 9.60775 11.9795 10.1019 11.2008 10.9584L2.92549 20.0598L2.92547 20.0598C0.514077 22.712 0.514077 26.9891 2.92547 29.6413L2.92559 29.6414C5.38711 32.3478 9.43158 32.349 11.8934 29.6413L11.8935 29.6412L27.0739 12.9432L27.0739 12.9432C29.4848 10.291 29.4848 6.01409 27.0739 3.36189L27.0738 3.36182C25.8953 2.06562 24.3012 1.32864 22.5905 1.32864C20.878 1.32864 19.2854 2.06572 18.1067 3.3617L18.1065 3.3619L16.349 5.29531L16.3488 5.29555C16.3455 5.29913 16.3427 5.3019 16.3403 5.304C16.3379 5.30184 16.3349 5.29898 16.3315 5.29524L16.3312 5.29492C16.3067 5.26798 16.2813 5.21662 16.2813 5.14465C16.2813 5.07268 16.3067 5.02105 16.3315 4.99378L16.3316 4.9937L18.089 3.06036C18.089 3.06034 18.089 3.06031 18.0891 3.06029C19.3104 1.71706 20.9082 1 22.5905 1C24.2731 1 25.8707 1.71735 27.0925 3.06084C29.6359 5.85829 29.6358 10.4477 27.0924 13.2451L11.911 29.9423L11.9109 29.9424C10.6529 31.3264 9.02208 32 7.40911 32C5.79652 32 4.16569 31.3265 2.90765 29.9424Z" fill="#2F80ED" stroke="#2F80ED" stroke-width="2"/>
</svg>
