<svg width="82" height="51" viewBox="0 0 82 51" fill="none" xmlns="http://www.w3.org/2000/svg">
<path d="M8.28622 19.4216C8.28622 19.4216 12.6125 23.2109 17.4403 23.9056C17.4403 23.9056 20.8261 24.6635 23.1459 21.8846C23.1459 21.8846 24.7448 20.7162 23.2713 18.8532L19.6348 15.2533C19.6348 15.2533 18.757 14.2428 17.3463 15.127L15.1831 17.2743C15.1831 17.2743 9.22671 14.1797 6.84414 8.77988L8.50567 7.10627C8.50567 7.10627 10.1672 5.62211 8.53702 3.9485L4.90046 0.348641C4.90046 0.348641 3.61512 -0.567112 2.32979 0.569685C2.32979 0.569685 -0.805175 3.22221 0.198013 7.67466C0.198013 7.67466 0.292062 12.3482 8.28622 19.4216Z" transform="translate(27.415)" fill="#2F80ED"/>
<path d="M33.7227 16.168C32.2107 16.168 31.058 15.762 30.2647 14.95C29.4714 14.138 29.0747 12.8873 29.0747 11.198C29.0747 9.53667 29.476 8.29533 30.2787 7.474C31.0814 6.64333 32.2294 6.228 33.7227 6.228C34.544 6.228 35.272 6.368 35.9067 6.648C36.5414 6.91867 37.0407 7.334 37.4047 7.894C37.778 8.44467 37.9647 9.126 37.9647 9.938H36.1307C36.1307 9.238 35.9114 8.69667 35.4727 8.314C35.0434 7.93133 34.4694 7.74 33.7507 7.74C32.7894 7.74 32.0754 8.01533 31.6087 8.566C31.142 9.11667 30.9087 9.94733 30.9087 11.058V11.338C30.9087 12.458 31.1374 13.2933 31.5947 13.844C32.0614 14.3853 32.78 14.656 33.7507 14.656C34.5067 14.656 35.104 14.4693 35.5427 14.096C35.9814 13.7133 36.2007 13.1767 36.2007 12.486H37.9647C37.9647 13.69 37.5727 14.6047 36.7887 15.23C36.014 15.8553 34.992 16.168 33.7227 16.168ZM40.9842 16.168C40.3869 16.168 39.8455 16.0233 39.3602 15.734C38.8842 15.4353 38.6462 14.8893 38.6462 14.096C38.6462 13.1533 39.0475 12.4907 39.8502 12.108C40.6529 11.7253 41.7915 11.534 43.2662 11.534V10.918C43.2662 10.5633 43.1729 10.288 42.9862 10.092C42.8089 9.896 42.4822 9.798 42.0062 9.798C41.5115 9.798 41.1615 9.87733 40.9562 10.036C40.7509 10.1947 40.6482 10.3907 40.6482 10.624V10.82H39.0242C39.0149 10.764 39.0102 10.6613 39.0102 10.512C39.0102 9.87733 39.2809 9.378 39.8222 9.014C40.3729 8.65 41.1009 8.468 42.0062 8.468C42.9862 8.468 43.7189 8.66867 44.2042 9.07C44.6989 9.47133 44.9462 10.0453 44.9462 10.792V14.306C44.9462 14.474 44.9929 14.6 45.0862 14.684C45.1795 14.7587 45.2962 14.796 45.4362 14.796H45.8842V15.944C45.5855 16.084 45.2355 16.154 44.8342 16.154C44.4702 16.154 44.1669 16.0653 43.9242 15.888C43.6815 15.7107 43.5182 15.468 43.4342 15.16H43.3362C42.7855 15.832 42.0015 16.168 40.9842 16.168ZM41.4882 14.824C42.0389 14.824 42.4729 14.6653 42.7902 14.348C43.1075 14.0307 43.2662 13.6013 43.2662 13.06V12.724C42.3609 12.724 41.6515 12.8127 41.1382 12.99C40.6249 13.158 40.3682 13.4707 40.3682 13.928C40.3682 14.5253 40.7415 14.824 41.4882 14.824ZM46.6215 5.878H48.3015V16H46.6215V5.878ZM49.8946 5.878H51.5746V16H49.8946V5.878Z" transform="translate(0.532715 28)" fill="#2F80ED"/>
</svg>
