<svg width="81" height="51" viewBox="0 0 81 51" fill="none" xmlns="http://www.w3.org/2000/svg">
<path d="M27.0588 7.936H23.9648V6.396H31.9308V7.936H28.8368V16H27.0588V7.936ZM34.8066 16.168C33.5933 16.168 32.6833 15.8553 32.0766 15.23C31.4793 14.6047 31.1806 13.634 31.1806 12.318C31.1806 11.002 31.4793 10.0313 32.0766 9.406C32.6833 8.78067 33.5933 8.468 34.8066 8.468C36.0199 8.468 36.9253 8.78067 37.5226 9.406C38.1293 10.0313 38.4326 11.002 38.4326 12.318C38.4326 13.634 38.1293 14.6047 37.5226 15.23C36.9253 15.8553 36.0199 16.168 34.8066 16.168ZM34.8066 14.796C35.4693 14.796 35.9499 14.6047 36.2486 14.222C36.5473 13.83 36.6966 13.228 36.6966 12.416V12.22C36.6966 11.408 36.5473 10.8107 36.2486 10.428C35.9499 10.036 35.4693 9.84 34.8066 9.84C34.1346 9.84 33.6493 10.036 33.3506 10.428C33.0613 10.8107 32.9166 11.408 32.9166 12.22V12.416C32.9166 13.228 33.0613 13.83 33.3506 14.222C33.6493 14.6047 34.1346 14.796 34.8066 14.796ZM42.7418 16.168C41.5284 16.168 40.6184 15.8553 40.0118 15.23C39.4144 14.6047 39.1158 13.634 39.1158 12.318C39.1158 11.002 39.4144 10.0313 40.0118 9.406C40.6184 8.78067 41.5284 8.468 42.7418 8.468C43.9551 8.468 44.8604 8.78067 45.4578 9.406C46.0644 10.0313 46.3678 11.002 46.3678 12.318C46.3678 13.634 46.0644 14.6047 45.4578 15.23C44.8604 15.8553 43.9551 16.168 42.7418 16.168ZM42.7418 14.796C43.4044 14.796 43.8851 14.6047 44.1838 14.222C44.4824 13.83 44.6318 13.228 44.6318 12.416V12.22C44.6318 11.408 44.4824 10.8107 44.1838 10.428C43.8851 10.036 43.4044 9.84 42.7418 9.84C42.0698 9.84 41.5844 10.036 41.2858 10.428C40.9964 10.8107 40.8518 11.408 40.8518 12.22V12.416C40.8518 13.228 40.9964 13.83 41.2858 14.222C41.5844 14.6047 42.0698 14.796 42.7418 14.796ZM47.5129 5.878H49.1929V16H47.5129V5.878ZM53.572 16.168C52.5546 16.168 51.766 15.958 51.206 15.538C50.6553 15.118 50.38 14.572 50.38 13.9C50.38 13.816 50.38 13.76 50.38 13.732C50.3893 13.704 50.394 13.6853 50.394 13.676H52.032V13.788C52.0413 14.152 52.1953 14.4227 52.494 14.6C52.802 14.768 53.1846 14.852 53.642 14.852C54.0526 14.852 54.4026 14.7867 54.692 14.656C54.9813 14.516 55.126 14.3107 55.126 14.04C55.126 13.8253 55.0466 13.6527 54.888 13.522C54.7293 13.382 54.5333 13.2747 54.3 13.2C54.0666 13.116 53.7353 13.0227 53.306 12.92C52.7273 12.78 52.2513 12.64 51.878 12.5C51.514 12.36 51.2013 12.1407 50.94 11.842C50.6786 11.5433 50.548 11.1513 50.548 10.666C50.548 9.966 50.8373 9.42467 51.416 9.042C51.9946 8.65933 52.746 8.468 53.67 8.468C54.2393 8.468 54.748 8.552 55.196 8.72C55.644 8.888 55.9893 9.126 56.232 9.434C56.484 9.73267 56.61 10.078 56.61 10.47L56.596 10.778H54.958V10.722C54.958 10.4327 54.8366 10.2087 54.594 10.05C54.3606 9.882 54.02 9.798 53.572 9.798C53.1333 9.798 52.802 9.868 52.578 10.008C52.354 10.1387 52.242 10.3113 52.242 10.526C52.242 10.7873 52.3773 10.9833 52.648 11.114C52.928 11.2353 53.3526 11.3567 53.922 11.478C54.538 11.618 55.0326 11.7627 55.406 11.912C55.7886 12.052 56.12 12.276 56.4 12.584C56.68 12.892 56.82 13.3073 56.82 13.83C56.82 14.642 56.526 15.2347 55.938 15.608C55.3593 15.9813 54.5706 16.168 53.572 16.168Z" transform="translate(0.11377 28)" fill="#2F80ED"/>
<path d="M0 3.09944e-07V16.575C0 17.4687 0.728057 18.2 1.6179 18.2C2.50775 18.2 3.23581 17.4687 3.23581 16.575V3.09944e-07H0Z" transform="translate(32.2227 7.80017)" fill="#2F80ED"/>
<path d="M9.70743 0H5.66267C5.66267 0.89375 4.93461 1.625 4.04476 1.625C3.15491 1.625 2.42686 0.89375 2.42686 0H0V6.5H2.42686C2.42686 5.60625 3.15491 4.875 4.04476 4.875C4.93461 4.875 5.66267 5.60625 5.66267 6.5V24.375C5.66267 25.2687 6.39072 26 7.28057 26C8.17042 26 8.89847 25.2687 8.89847 24.375V4.95625C10.7591 5.3625 12.1343 6.9875 12.1343 8.9375H13.7522V4.0625C13.7522 1.7875 11.9725 0 9.70743 0Z" transform="translate(41.1211)" fill="#2F80ED"/>
<path d="M7.28057 0V4.225L4.85371 5.85L2.42686 4.225V0C0.970743 0.8125 0 2.4375 0 4.225C0 6.90625 2.18417 9.1 4.85371 9.1C7.52326 9.1 9.70743 6.90625 9.70743 4.225C9.70743 2.4375 8.73668 0.8125 7.28057 0Z" transform="translate(28.9868)" fill="#2F80ED"/>
</svg>
