<svg width="50" height="50" viewBox="0 0 50 50" fill="none" xmlns="http://www.w3.org/2000/svg">
<path d="M49.5536 23.9197L26.0782 0.441444C25.9024 0.265011 25.6915 0.14739 25.4696 0.075818C25.1423 -0.0301525 24.7884 -0.0262686 24.465 0.0952369C24.4522 0.10023 24.4389 0.10134 24.4267 0.106888C24.425 0.107443 24.4239 0.108552 24.4222 0.109107C24.2403 0.183453 24.07 0.293862 23.9224 0.441999L0.446446 23.9197C-0.148816 24.5145 -0.148816 25.4804 0.446446 26.0758L23.9219 49.5535C24.5171 50.1488 25.4824 50.1488 26.0777 49.5535L49.5531 26.0758C50.1489 25.4799 50.1489 24.5145 49.5536 23.9197ZM28.3339 15.4249C28.2662 15.0493 28.4177 14.6936 28.7344 14.4817C28.8143 14.4279 28.8986 14.3879 28.9857 14.3608C29.0085 14.3535 29.0323 14.3552 29.0556 14.3497C29.12 14.3352 29.1843 14.3203 29.2504 14.3203C29.3008 14.3203 29.3513 14.333 29.4013 14.3413C29.4379 14.348 29.475 14.3469 29.5105 14.3574C29.5965 14.3829 29.6803 14.4207 29.7596 14.4723L37.4892 21.6466L29.7591 28.8221C29.6792 28.8737 29.5954 28.9114 29.5094 28.937C29.4928 28.942 29.4756 28.9403 29.459 28.9447C29.3891 28.9608 29.3192 28.9747 29.2481 28.9747C29.2027 28.9741 29.1583 28.9614 29.1128 28.9542C29.0701 28.947 29.0262 28.947 28.9841 28.9342C28.8981 28.907 28.8138 28.8676 28.7339 28.8138C28.4177 28.6013 28.2662 28.2457 28.3333 27.8701L29.0862 23.7161L21.046 23.6862L20.9921 33.4133H16.9657L16.9196 22.5355C16.9152 20.9248 18.2161 19.6155 19.826 19.6105L29.0867 19.5799L28.3339 15.4249Z" fill="#2F80ED"/>
</svg>
