<svg width="405" height="280" viewBox="0 0 405 280" fill="none" xmlns="http://www.w3.org/2000/svg">
<mask id="mask0" mask-type="alpha" maskUnits="userSpaceOnUse" x="0" y="0" width="405" height="280">
<path fill-rule="evenodd" clip-rule="evenodd" d="M0 4C0 1.79086 1.79086 0 4 0H401C403.209 0 405 1.79086 405 4V276C405 278.209 403.209 280 401 280H4C1.79086 280 0 278.209 0 276V4Z" fill="white"/>
</mask>
<g mask="url(#mask0)">
<path fill-rule="evenodd" clip-rule="evenodd" d="M0 4C0 1.79086 1.79086 0 4 0H151C153.209 0 155 1.79086 155 4V147C155 149.209 153.209 151 151 151H4C1.79086 151 0 149.209 0 147V4Z" transform="translate(-95.8125 -45.86)" fill="#E4EAEF"/>
<path fill-rule="evenodd" clip-rule="evenodd" d="M253.373 156.473L230.92 186.487C230.429 187.144 229.341 187.368 228.49 186.99L160.336 156.622C159.485 156.243 159.194 155.404 159.685 154.747L182.138 124.734C182.629 124.078 183.717 123.853 184.568 124.231L252.722 154.599C253.573 154.978 253.864 155.817 253.373 156.473ZM302.177 225.946L279.723 255.96C279.232 256.616 278.145 256.841 277.294 256.462L209.139 226.095C208.289 225.715 207.998 224.876 208.488 224.22L230.942 194.206C231.433 193.55 232.521 193.325 233.372 193.704L301.526 224.071C302.376 224.451 302.668 225.29 302.177 225.946ZM406.302 90.6459L383.848 120.659C383.357 121.316 382.27 121.541 381.419 121.162L313.264 90.7946C312.414 90.4155 312.123 89.5764 312.613 88.92L335.067 58.9064C335.558 58.2503 336.646 58.0252 337.497 58.4038L405.651 88.7713C406.501 89.1505 406.793 89.9898 406.302 90.6459ZM194.864 32.426L172.411 62.4395C171.92 63.0962 170.832 63.3208 169.981 62.9422L101.827 32.5746C100.976 32.1955 100.685 31.3564 101.176 30.7L123.629 0.686467C124.121 0.0303137 125.208 -0.194821 126.059 0.183791L194.213 30.5514C195.064 30.9305 195.355 31.7698 194.864 32.426ZM171.462 132.358C170.971 133.014 169.883 133.239 169.033 132.86L138.229 119.135C137.378 118.756 137.086 117.916 137.578 117.26L160.031 87.2466C160.522 86.5905 161.61 86.3653 162.46 86.7445L193.265 100.47C194.115 100.849 194.406 101.688 193.916 102.345L171.462 132.358ZM119.271 133.966C118.78 134.623 117.692 134.848 116.841 134.469L86.0369 120.744C85.1864 120.365 84.895 119.525 85.3859 118.869L107.839 88.8557C108.331 88.199 109.418 87.9744 110.269 88.353L141.073 102.078C141.923 102.457 142.215 103.297 141.724 103.953L119.271 133.966ZM145.992 98.2773C145.501 98.934 144.413 99.1588 143.563 98.7797L112.759 85.0547C111.908 84.6756 111.617 83.8357 112.108 83.1796L134.561 53.1666C135.052 52.5099 136.14 52.2853 136.99 52.6639L167.795 66.3891C168.645 66.768 168.937 67.6078 168.446 68.264L145.992 98.2773ZM80.2442 116.453C79.7533 117.11 78.6654 117.335 77.8148 116.956L47.0105 103.231C46.16 102.852 45.8686 102.012 46.3596 101.356L68.8129 71.3427C69.3042 70.686 70.3917 70.4614 71.2423 70.84L102.047 84.5653C102.897 84.9441 103.189 85.784 102.698 86.4401L80.2442 116.453ZM221.553 133.872C221.062 134.529 219.974 134.754 219.123 134.375L188.319 120.65C187.469 120.271 187.177 119.431 187.668 118.775L210.122 88.7615C210.613 88.1048 211.7 87.8802 212.551 88.2589L243.355 101.984C244.206 102.363 244.497 103.203 244.006 103.859L221.553 133.872ZM258.762 150.534C258.271 151.19 257.183 151.415 256.332 151.036L225.528 137.311C224.678 136.932 224.386 136.092 224.877 135.436L247.33 105.423C247.822 104.766 248.909 104.542 249.76 104.92L280.564 118.646C281.415 119.024 281.706 119.864 281.215 120.52L258.762 150.534ZM115.269 139.316L71.4733 197.856C70.9824 198.513 69.8945 198.738 69.044 198.358L0.889448 167.991C0.0389028 167.613 -0.252465 166.773 0.238461 166.116L44.0338 107.576C44.525 106.919 45.6126 106.694 46.4631 107.073L114.618 137.44C115.468 137.82 115.76 138.659 115.269 139.316ZM378.769 125.907L334.973 184.447C334.482 185.104 333.395 185.328 332.544 184.949L264.389 154.582C263.539 154.203 263.248 153.364 263.738 152.707L307.534 94.1667C308.025 93.51 309.113 93.2851 309.963 93.664L378.118 124.031C378.968 124.41 379.26 125.25 378.769 125.907ZM79.8354 194.594C80.3267 193.938 81.4142 193.712 82.2651 194.091L113.069 207.817C113.92 208.196 114.211 209.035 113.72 209.691L91.2666 239.705C90.7757 240.362 89.6879 240.586 88.8373 240.208L58.033 226.482C57.1825 226.103 56.8911 225.264 57.382 224.607L79.8354 194.594ZM140.05 174.13L117.597 204.143C117.106 204.8 116.018 205.025 115.167 204.645L84.3631 190.921C83.5125 190.542 83.2212 189.702 83.7121 189.045L106.165 159.032C106.657 158.376 107.744 158.151 108.595 158.53L139.399 172.255C140.25 172.634 140.541 173.474 140.05 174.13ZM133.065 123.076C133.556 122.419 134.644 122.195 135.494 122.573L166.299 136.299C167.149 136.678 167.441 137.517 166.95 138.174L144.496 168.187C144.005 168.843 142.918 169.068 142.067 168.689L111.262 154.964C110.412 154.585 110.12 153.746 110.612 153.089L133.065 123.076ZM157.668 160.188L188.472 173.914C189.323 174.292 189.614 175.132 189.123 175.788L148.885 229.574C148.394 230.231 147.306 230.456 146.456 230.077L115.651 216.351C114.801 215.972 114.509 215.133 115 214.477L155.239 160.69C155.73 160.034 156.817 159.809 157.668 160.188ZM205.164 27.7464C205.655 27.09 206.743 26.8651 207.594 27.2443L238.398 40.9698C239.249 41.3486 239.54 42.188 239.049 42.8444L198.811 96.6305C198.319 97.2869 197.232 97.5121 196.381 97.1329L165.577 83.4075C164.727 83.0283 164.435 82.1895 164.926 81.5328L205.164 27.7464ZM166.133 212.695C166.625 212.038 167.712 211.813 168.563 212.192L199.367 225.917C200.218 226.297 200.509 227.136 200.018 227.793L177.564 257.806C177.074 258.462 175.986 258.687 175.135 258.308L144.331 244.583C143.48 244.204 143.189 243.364 143.68 242.708L166.133 212.695ZM110.879 219.626C111.371 218.97 112.458 218.745 113.309 219.124L144.113 232.849C144.964 233.228 145.255 234.068 144.764 234.724L122.311 264.737C121.82 265.394 120.732 265.619 119.881 265.24L89.077 251.515C88.2264 251.136 87.935 250.296 88.426 249.639L110.879 219.626ZM96.0043 35.9466C96.4956 35.2899 97.5831 35.065 98.434 35.4444L129.238 49.1694C130.089 49.5485 130.38 50.3878 129.889 51.0445L107.436 81.0575C106.945 81.7142 105.857 81.9388 105.006 81.5597L74.202 67.8347C73.3514 67.4558 73.06 66.6157 73.551 65.9596L96.0043 35.9466ZM170.135 207.345L192.588 177.333C193.08 176.676 194.167 176.451 195.018 176.83L225.822 190.555C226.673 190.935 226.964 191.774 226.473 192.43L204.02 222.443C203.529 223.1 202.441 223.325 201.59 222.946L170.786 209.221C169.935 208.841 169.644 208.002 170.135 207.345ZM274.363 204.54L296.817 174.527C297.308 173.87 298.396 173.645 299.247 174.024L330.051 187.749C330.901 188.129 331.193 188.968 330.702 189.624L308.248 219.637C307.757 220.294 306.669 220.519 305.819 220.14L275.014 206.415C274.164 206.035 273.873 205.196 274.363 204.54ZM214.863 83.1795L237.317 53.1668C237.808 52.5101 238.896 52.2852 239.747 52.6638L270.551 66.3893C271.401 66.7687 271.693 67.6078 271.202 68.2639L248.748 98.2775C248.257 98.9342 247.169 99.159 246.319 98.7801L215.514 85.0547C214.664 84.6755 214.373 83.8362 214.863 83.1795ZM252.051 100.399L274.504 70.3867C274.996 69.73 276.083 69.5052 276.934 69.8838L307.738 83.6093C308.589 83.9887 308.88 84.8277 308.389 85.4839L285.936 115.497C285.445 116.154 284.357 116.379 283.506 116L252.702 102.275C251.851 101.895 251.56 101.056 252.051 100.399ZM258.567 158.127C259.058 157.47 260.146 157.245 260.997 157.624L291.801 171.349C292.651 171.729 292.943 172.568 292.452 173.224L269.998 203.238C269.507 203.894 268.419 204.119 267.569 203.74L236.764 190.015C235.914 189.636 235.623 188.796 236.113 188.14L258.567 158.127ZM301.067 35.0228C301.558 34.3662 302.646 34.1413 303.497 34.5199L334.301 48.2454C335.151 48.6248 335.443 49.4638 334.952 50.12L312.498 80.1335C312.007 80.7902 310.919 81.0151 310.069 80.6362L279.264 66.9107C278.414 66.5316 278.123 65.6923 278.613 65.0356L301.067 35.0228ZM263.879 17.3288C264.371 16.6721 265.458 16.4472 266.309 16.8258L297.113 30.5513C297.964 30.9307 298.255 31.7697 297.764 32.4259L275.311 62.4395C274.82 63.0961 273.732 63.321 272.881 62.9421L242.077 49.2166C241.226 48.8375 240.935 47.9982 241.426 47.3415L263.879 17.3288ZM181.926 259.48L204.379 229.467C204.871 228.81 205.958 228.585 206.809 228.964L237.613 242.689C238.464 243.069 238.755 243.908 238.264 244.564L215.811 274.578C215.32 275.234 214.232 275.459 213.381 275.08L182.577 261.355C181.726 260.976 181.435 260.136 181.926 259.48ZM219.113 276.7L241.567 246.687C242.058 246.03 243.146 245.805 243.997 246.184L274.801 259.909C275.651 260.289 275.943 261.128 275.452 261.784L252.998 291.797C252.507 292.454 251.419 292.679 250.569 292.3L219.764 278.575C218.914 278.196 218.623 277.356 219.113 276.7Z" transform="translate(-175 -105)" fill="white"/>
<path fill-rule="evenodd" clip-rule="evenodd" d="M253.373 156.473L230.92 186.487C230.429 187.144 229.341 187.368 228.49 186.99L160.336 156.622C159.485 156.243 159.194 155.404 159.685 154.747L182.138 124.734C182.629 124.078 183.717 123.853 184.568 124.231L252.722 154.599C253.573 154.978 253.864 155.817 253.373 156.473ZM302.177 225.946L279.723 255.96C279.232 256.616 278.145 256.841 277.294 256.462L209.139 226.095C208.289 225.715 207.998 224.876 208.488 224.22L230.942 194.206C231.433 193.55 232.521 193.325 233.372 193.704L301.526 224.071C302.376 224.451 302.668 225.29 302.177 225.946ZM406.302 90.6459L383.848 120.659C383.357 121.316 382.27 121.541 381.419 121.162L313.264 90.7946C312.414 90.4155 312.123 89.5764 312.613 88.92L335.067 58.9064C335.558 58.2503 336.646 58.0252 337.497 58.4038L405.651 88.7713C406.501 89.1505 406.793 89.9898 406.302 90.6459ZM194.864 32.426L172.411 62.4395C171.92 63.0962 170.832 63.3208 169.981 62.9422L101.827 32.5746C100.976 32.1955 100.685 31.3564 101.176 30.7L123.629 0.686467C124.121 0.0303137 125.208 -0.194821 126.059 0.183791L194.213 30.5514C195.064 30.9305 195.355 31.7698 194.864 32.426ZM171.462 132.358C170.971 133.014 169.883 133.239 169.033 132.86L138.229 119.135C137.378 118.756 137.086 117.916 137.578 117.26L160.031 87.2466C160.522 86.5905 161.61 86.3653 162.46 86.7445L193.265 100.47C194.115 100.849 194.406 101.688 193.916 102.345L171.462 132.358ZM119.271 133.966C118.78 134.623 117.692 134.848 116.841 134.469L86.0369 120.744C85.1864 120.365 84.895 119.525 85.3859 118.869L107.839 88.8557C108.331 88.199 109.418 87.9744 110.269 88.353L141.073 102.078C141.923 102.457 142.215 103.297 141.724 103.953L119.271 133.966ZM145.992 98.2773C145.501 98.934 144.413 99.1588 143.563 98.7797L112.759 85.0547C111.908 84.6756 111.617 83.8357 112.108 83.1796L134.561 53.1666C135.052 52.5099 136.14 52.2853 136.99 52.6639L167.795 66.3891C168.645 66.768 168.937 67.6078 168.446 68.264L145.992 98.2773ZM80.2442 116.453C79.7533 117.11 78.6654 117.335 77.8148 116.956L47.0105 103.231C46.16 102.852 45.8686 102.012 46.3596 101.356L68.8129 71.3427C69.3042 70.686 70.3917 70.4614 71.2423 70.84L102.047 84.5653C102.897 84.9441 103.189 85.784 102.698 86.4401L80.2442 116.453ZM221.553 133.872C221.062 134.529 219.974 134.754 219.123 134.375L188.319 120.65C187.469 120.271 187.177 119.431 187.668 118.775L210.122 88.7615C210.613 88.1048 211.7 87.8802 212.551 88.2589L243.355 101.984C244.206 102.363 244.497 103.203 244.006 103.859L221.553 133.872ZM258.762 150.534C258.271 151.19 257.183 151.415 256.332 151.036L225.528 137.311C224.678 136.932 224.386 136.092 224.877 135.436L247.33 105.423C247.822 104.766 248.909 104.542 249.76 104.92L280.564 118.646C281.415 119.024 281.706 119.864 281.215 120.52L258.762 150.534ZM115.269 139.316L71.4733 197.856C70.9824 198.513 69.8945 198.738 69.044 198.358L0.889448 167.991C0.0389028 167.613 -0.252465 166.773 0.238461 166.116L44.0338 107.576C44.525 106.919 45.6126 106.694 46.4631 107.073L114.618 137.44C115.468 137.82 115.76 138.659 115.269 139.316ZM378.769 125.907L334.973 184.447C334.482 185.104 333.395 185.328 332.544 184.949L264.389 154.582C263.539 154.203 263.248 153.364 263.738 152.707L307.534 94.1667C308.025 93.51 309.113 93.2851 309.963 93.664L378.118 124.031C378.968 124.41 379.26 125.25 378.769 125.907ZM79.8354 194.594C80.3267 193.938 81.4142 193.712 82.2651 194.091L113.069 207.817C113.92 208.196 114.211 209.035 113.72 209.691L91.2666 239.705C90.7757 240.362 89.6879 240.586 88.8373 240.208L58.033 226.482C57.1825 226.103 56.8911 225.264 57.382 224.607L79.8354 194.594ZM140.05 174.13L117.597 204.143C117.106 204.8 116.018 205.025 115.167 204.645L84.3631 190.921C83.5125 190.542 83.2212 189.702 83.7121 189.045L106.165 159.032C106.657 158.376 107.744 158.151 108.595 158.53L139.399 172.255C140.25 172.634 140.541 173.474 140.05 174.13ZM133.065 123.076C133.556 122.419 134.644 122.195 135.494 122.573L166.299 136.299C167.149 136.678 167.441 137.517 166.95 138.174L144.496 168.187C144.005 168.843 142.918 169.068 142.067 168.689L111.262 154.964C110.412 154.585 110.12 153.746 110.612 153.089L133.065 123.076ZM157.668 160.188L188.472 173.914C189.323 174.292 189.614 175.132 189.123 175.788L148.885 229.574C148.394 230.231 147.306 230.456 146.456 230.077L115.651 216.351C114.801 215.972 114.509 215.133 115 214.477L155.239 160.69C155.73 160.034 156.817 159.809 157.668 160.188ZM205.164 27.7464C205.655 27.09 206.743 26.8651 207.594 27.2443L238.398 40.9698C239.249 41.3486 239.54 42.188 239.049 42.8444L198.811 96.6305C198.319 97.2869 197.232 97.5121 196.381 97.1329L165.577 83.4075C164.727 83.0283 164.435 82.1895 164.926 81.5328L205.164 27.7464ZM166.133 212.695C166.625 212.038 167.712 211.813 168.563 212.192L199.367 225.917C200.218 226.297 200.509 227.136 200.018 227.793L177.564 257.806C177.074 258.462 175.986 258.687 175.135 258.308L144.331 244.583C143.48 244.204 143.189 243.364 143.68 242.708L166.133 212.695ZM96.0043 35.9466C96.4956 35.2899 97.5831 35.065 98.434 35.4444L129.238 49.1694C130.089 49.5485 130.38 50.3878 129.889 51.0445L107.436 81.0575C106.945 81.7142 105.857 81.9388 105.006 81.5597L74.202 67.8347C73.3514 67.4558 73.06 66.6157 73.551 65.9596L96.0043 35.9466ZM170.135 207.345L192.588 177.333C193.08 176.676 194.167 176.451 195.018 176.83L225.822 190.555C226.673 190.935 226.964 191.774 226.473 192.43L204.02 222.443C203.529 223.1 202.441 223.325 201.59 222.946L170.786 209.221C169.935 208.841 169.644 208.002 170.135 207.345ZM274.363 204.54L296.817 174.527C297.308 173.87 298.396 173.645 299.247 174.024L330.051 187.749C330.901 188.129 331.193 188.968 330.702 189.624L308.248 219.637C307.757 220.294 306.669 220.519 305.819 220.14L275.014 206.415C274.164 206.035 273.873 205.196 274.363 204.54ZM214.863 83.1795L237.317 53.1668C237.808 52.5101 238.896 52.2852 239.747 52.6638L270.551 66.3893C271.401 66.7687 271.693 67.6078 271.202 68.2639L248.748 98.2775C248.257 98.9342 247.169 99.159 246.319 98.7801L215.514 85.0547C214.664 84.6755 214.373 83.8362 214.863 83.1795ZM252.051 100.399L274.504 70.3867C274.996 69.73 276.083 69.5052 276.934 69.8838L307.738 83.6093C308.589 83.9887 308.88 84.8277 308.389 85.4839L285.936 115.497C285.445 116.154 284.357 116.379 283.506 116L252.702 102.275C251.851 101.895 251.56 101.056 252.051 100.399ZM258.567 158.127C259.058 157.47 260.146 157.245 260.997 157.624L291.801 171.349C292.651 171.729 292.943 172.568 292.452 173.224L269.998 203.238C269.507 203.894 268.419 204.119 267.569 203.74L236.764 190.015C235.914 189.636 235.623 188.796 236.113 188.14L258.567 158.127ZM301.067 35.0228C301.558 34.3662 302.646 34.1413 303.497 34.5199L334.301 48.2454C335.151 48.6248 335.443 49.4638 334.952 50.12L312.498 80.1335C312.007 80.7902 310.919 81.0151 310.069 80.6362L279.264 66.9107C278.414 66.5316 278.123 65.6923 278.613 65.0356L301.067 35.0228ZM263.879 17.3288C264.371 16.6721 265.458 16.4472 266.309 16.8258L297.113 30.5513C297.964 30.9307 298.255 31.7697 297.764 32.4259L275.311 62.4395C274.82 63.0961 273.732 63.321 272.881 62.9421L242.077 49.2166C241.226 48.8375 240.935 47.9982 241.426 47.3415L263.879 17.3288ZM181.926 259.48L204.379 229.467C204.871 228.81 205.958 228.585 206.809 228.964L237.613 242.689C238.464 243.069 238.755 243.908 238.264 244.564L215.811 274.578C215.32 275.234 214.232 275.459 213.381 275.08L182.577 261.355C181.726 260.976 181.435 260.136 181.926 259.48ZM219.113 276.7L241.567 246.687C242.058 246.03 243.146 245.805 243.997 246.184L274.801 259.909C275.651 260.289 275.943 261.128 275.452 261.784L252.998 291.797C252.507 292.454 251.419 292.679 250.569 292.3L219.764 278.575C218.914 278.196 218.623 277.356 219.113 276.7ZM262.21 292.436L281.97 268.547C282.402 268.024 283.36 267.845 284.108 268.146L311.217 279.071C311.966 279.373 312.222 280.041 311.79 280.564L292.03 304.453C291.598 304.976 290.64 305.155 289.892 304.854L262.783 293.928C262.034 293.627 261.778 292.959 262.21 292.436Z" transform="translate(57 -280)" fill="white"/>
<path fill-rule="evenodd" clip-rule="evenodd" d="M253.373 156.473L230.92 186.487C230.429 187.144 229.341 187.368 228.49 186.99L160.336 156.622C159.485 156.243 159.194 155.404 159.685 154.747L182.138 124.734C182.629 124.078 183.717 123.853 184.568 124.231L252.722 154.599C253.573 154.978 253.864 155.817 253.373 156.473ZM302.177 225.946L279.723 255.96C279.232 256.616 278.145 256.841 277.294 256.462L209.139 226.095C208.289 225.715 207.998 224.876 208.488 224.22L230.942 194.206C231.433 193.55 232.521 193.325 233.372 193.704L301.526 224.071C302.376 224.451 302.668 225.29 302.177 225.946ZM406.302 90.6459L383.848 120.659C383.357 121.316 382.27 121.541 381.419 121.162L313.264 90.7946C312.414 90.4155 312.123 89.5764 312.613 88.92L335.067 58.9064C335.558 58.2503 336.646 58.0252 337.497 58.4038L405.651 88.7713C406.501 89.1505 406.793 89.9898 406.302 90.6459ZM194.864 32.426L172.411 62.4395C171.92 63.0962 170.832 63.3208 169.981 62.9422L101.827 32.5746C100.976 32.1955 100.685 31.3564 101.176 30.7L123.629 0.686467C124.121 0.0303137 125.208 -0.194821 126.059 0.183791L194.213 30.5514C195.064 30.9305 195.355 31.7698 194.864 32.426ZM171.462 132.358C170.971 133.014 169.883 133.239 169.033 132.86L138.229 119.135C137.378 118.756 137.086 117.916 137.578 117.26L160.031 87.2466C160.522 86.5905 161.61 86.3653 162.46 86.7445L193.265 100.47C194.115 100.849 194.406 101.688 193.916 102.345L171.462 132.358ZM119.271 133.966C118.78 134.623 117.692 134.848 116.841 134.469L86.0369 120.744C85.1864 120.365 84.895 119.525 85.3859 118.869L107.839 88.8557C108.331 88.199 109.418 87.9744 110.269 88.353L141.073 102.078C141.923 102.457 142.215 103.297 141.724 103.953L119.271 133.966ZM145.992 98.2773C145.501 98.934 144.413 99.1588 143.563 98.7797L112.759 85.0547C111.908 84.6756 111.617 83.8357 112.108 83.1796L134.561 53.1666C135.052 52.5099 136.14 52.2853 136.99 52.6639L167.795 66.3891C168.645 66.768 168.937 67.6078 168.446 68.264L145.992 98.2773ZM80.2442 116.453C79.7533 117.11 78.6654 117.335 77.8148 116.956L47.0105 103.231C46.16 102.852 45.8686 102.012 46.3596 101.356L68.8129 71.3427C69.3042 70.686 70.3917 70.4614 71.2423 70.84L102.047 84.5653C102.897 84.9441 103.189 85.784 102.698 86.4401L80.2442 116.453ZM221.553 133.872C221.062 134.529 219.974 134.754 219.123 134.375L188.319 120.65C187.469 120.271 187.177 119.431 187.668 118.775L210.122 88.7615C210.613 88.1048 211.7 87.8802 212.551 88.2589L243.355 101.984C244.206 102.363 244.497 103.203 244.006 103.859L221.553 133.872ZM258.762 150.534C258.271 151.19 257.183 151.415 256.332 151.036L225.528 137.311C224.678 136.932 224.386 136.092 224.877 135.436L247.33 105.423C247.822 104.766 248.909 104.542 249.76 104.92L280.564 118.646C281.415 119.024 281.706 119.864 281.215 120.52L258.762 150.534ZM115.269 139.316L71.4733 197.856C70.9824 198.513 69.8945 198.738 69.044 198.358L0.889448 167.991C0.0389028 167.613 -0.252465 166.773 0.238461 166.116L44.0338 107.576C44.525 106.919 45.6126 106.694 46.4631 107.073L114.618 137.44C115.468 137.82 115.76 138.659 115.269 139.316ZM378.769 125.907L334.973 184.447C334.482 185.104 333.395 185.328 332.544 184.949L264.389 154.582C263.539 154.203 263.248 153.364 263.738 152.707L307.534 94.1667C308.025 93.51 309.113 93.2851 309.963 93.664L378.118 124.031C378.968 124.41 379.26 125.25 378.769 125.907ZM279.692 265.687C280.183 265.03 281.271 264.805 282.122 265.184L312.925 278.909C313.776 279.289 314.068 280.128 313.576 280.784L291.123 310.798C290.632 311.454 289.544 311.679 288.694 311.3L257.889 297.575C257.039 297.196 256.748 296.356 257.238 295.7L279.692 265.687ZM140.05 174.13L117.597 204.143C117.106 204.8 116.018 205.025 115.167 204.645L84.3631 190.921C83.5125 190.542 83.2212 189.702 83.7121 189.045L106.165 159.032C106.657 158.376 107.744 158.151 108.595 158.53L139.399 172.255C140.25 172.634 140.541 173.474 140.05 174.13ZM133.065 123.076C133.556 122.419 134.644 122.195 135.494 122.573L166.299 136.299C167.149 136.678 167.441 137.517 166.95 138.174L144.496 168.187C144.005 168.843 142.918 169.068 142.067 168.689L111.262 154.964C110.412 154.585 110.12 153.746 110.612 153.089L133.065 123.076ZM157.668 160.188L188.472 173.914C189.323 174.292 189.614 175.132 189.123 175.788L148.885 229.574C148.394 230.231 147.306 230.456 146.456 230.077L115.651 216.351C114.801 215.972 114.509 215.133 115 214.477L155.239 160.69C155.73 160.034 156.817 159.809 157.668 160.188ZM205.164 27.7464C205.655 27.09 206.743 26.8651 207.594 27.2443L238.398 40.9698C239.249 41.3486 239.54 42.188 239.049 42.8444L198.811 96.6305C198.319 97.2869 197.232 97.5121 196.381 97.1329L165.577 83.4075C164.727 83.0283 164.435 82.1895 164.926 81.5328L205.164 27.7464ZM166.133 212.695C166.625 212.038 167.712 211.813 168.563 212.192L199.367 225.917C200.218 226.297 200.509 227.136 200.018 227.793L177.564 257.806C177.074 258.462 175.986 258.687 175.135 258.308L144.331 244.583C143.48 244.204 143.189 243.364 143.68 242.708L166.133 212.695ZM96.0043 35.9466C96.4956 35.2899 97.5831 35.065 98.434 35.4444L129.238 49.1694C130.089 49.5485 130.38 50.3878 129.889 51.0445L107.436 81.0575C106.945 81.7142 105.857 81.9388 105.006 81.5597L74.202 67.8347C73.3514 67.4558 73.06 66.6157 73.551 65.9596L96.0043 35.9466ZM170.135 207.345L192.588 177.333C193.08 176.676 194.167 176.451 195.018 176.83L225.822 190.555C226.673 190.935 226.964 191.774 226.473 192.43L204.02 222.443C203.529 223.1 202.441 223.325 201.59 222.946L170.786 209.221C169.935 208.841 169.644 208.002 170.135 207.345ZM274.363 204.54L296.817 174.527C297.308 173.87 298.396 173.645 299.247 174.024L330.051 187.749C330.901 188.129 331.193 188.968 330.702 189.624L308.248 219.637C307.757 220.294 306.669 220.519 305.819 220.14L275.014 206.415C274.164 206.035 273.873 205.196 274.363 204.54ZM214.863 83.1795L237.317 53.1668C237.808 52.5101 238.896 52.2852 239.747 52.6638L270.551 66.3893C271.401 66.7687 271.693 67.6078 271.202 68.2639L248.748 98.2775C248.257 98.9342 247.169 99.159 246.319 98.7801L215.514 85.0547C214.664 84.6755 214.373 83.8362 214.863 83.1795ZM252.051 100.399L274.504 70.3867C274.996 69.73 276.083 69.5052 276.934 69.8838L307.738 83.6093C308.589 83.9887 308.88 84.8277 308.389 85.4839L285.936 115.497C285.445 116.154 284.357 116.379 283.506 116L252.702 102.275C251.851 101.895 251.56 101.056 252.051 100.399ZM258.567 158.127C259.058 157.47 260.146 157.245 260.997 157.624L291.801 171.349C292.651 171.729 292.943 172.568 292.452 173.224L269.998 203.238C269.507 203.894 268.419 204.119 267.569 203.74L236.764 190.015C235.914 189.636 235.623 188.796 236.113 188.14L258.567 158.127ZM301.067 35.0228C301.558 34.3662 302.646 34.1413 303.497 34.5199L334.301 48.2454C335.151 48.6248 335.443 49.4638 334.952 50.12L312.498 80.1335C312.007 80.7902 310.919 81.0151 310.069 80.6362L279.264 66.9107C278.414 66.5316 278.123 65.6923 278.613 65.0356L301.067 35.0228ZM263.879 17.3288C264.371 16.6721 265.458 16.4472 266.309 16.8258L297.113 30.5513C297.964 30.9307 298.255 31.7697 297.764 32.4259L275.311 62.4395C274.82 63.0961 273.732 63.321 272.881 62.9421L242.077 49.2166C241.226 48.8375 240.935 47.9982 241.426 47.3415L263.879 17.3288ZM181.926 259.48L204.379 229.467C204.871 228.81 205.958 228.585 206.809 228.964L237.613 242.689C238.464 243.069 238.755 243.908 238.264 244.564L215.811 274.578C215.32 275.234 214.232 275.459 213.381 275.08L182.577 261.355C181.726 260.976 181.435 260.136 181.926 259.48ZM219.113 276.7L241.567 246.687C242.058 246.03 243.146 245.805 243.997 246.184L274.801 259.909C275.651 260.289 275.943 261.128 275.452 261.784L252.998 291.797C252.507 292.454 251.419 292.679 250.569 292.3L219.764 278.575C218.914 278.196 218.623 277.356 219.113 276.7Z" transform="translate(197 -262)" fill="white"/>
<path fill-rule="evenodd" clip-rule="evenodd" d="M253.373 156.473L230.92 186.487C230.429 187.144 229.341 187.368 228.49 186.99L160.336 156.622C159.485 156.243 159.194 155.404 159.685 154.747L182.138 124.734C182.629 124.078 183.717 123.853 184.568 124.231L252.722 154.599C253.573 154.978 253.864 155.817 253.373 156.473ZM302.177 225.946L279.723 255.96C279.232 256.616 278.145 256.841 277.294 256.462L209.139 226.095C208.289 225.715 207.998 224.876 208.488 224.22L230.942 194.206C231.433 193.55 232.521 193.325 233.372 193.704L301.526 224.071C302.376 224.451 302.668 225.29 302.177 225.946ZM406.302 90.6459L383.848 120.659C383.357 121.316 382.27 121.541 381.419 121.162L313.264 90.7946C312.414 90.4155 312.123 89.5764 312.613 88.92L335.067 58.9064C335.558 58.2503 336.646 58.0252 337.497 58.4038L405.651 88.7713C406.501 89.1505 406.793 89.9898 406.302 90.6459ZM194.864 32.426L172.411 62.4395C171.92 63.0962 170.832 63.3208 169.981 62.9422L101.827 32.5746C100.976 32.1955 100.685 31.3564 101.176 30.7L123.629 0.686467C124.121 0.0303137 125.208 -0.194821 126.059 0.183791L194.213 30.5514C195.064 30.9305 195.355 31.7698 194.864 32.426ZM216.927 287.426L194.473 317.44C193.982 318.096 192.895 318.321 192.044 317.942L123.889 287.575C123.039 287.195 122.748 286.356 123.238 285.7L145.692 255.686C146.183 255.03 147.271 254.805 148.122 255.184L216.276 285.551C217.126 285.931 217.418 286.77 216.927 287.426ZM171.462 132.358C170.971 133.014 169.883 133.239 169.033 132.86L138.229 119.135C137.378 118.756 137.086 117.916 137.578 117.26L160.031 87.2466C160.522 86.5905 161.61 86.3653 162.46 86.7445L193.265 100.47C194.115 100.849 194.406 101.688 193.916 102.345L171.462 132.358ZM119.271 133.966C118.78 134.623 117.692 134.848 116.841 134.469L86.0369 120.744C85.1864 120.365 84.895 119.525 85.3859 118.869L107.839 88.8555C108.331 88.1988 109.418 87.9742 110.269 88.3529L141.073 102.078C141.923 102.457 142.215 103.297 141.724 103.953L119.271 133.966ZM145.992 98.2773C145.501 98.934 144.413 99.1588 143.563 98.7797L112.759 85.0547C111.908 84.6756 111.617 83.8357 112.108 83.1796L134.561 53.1666C135.052 52.5099 136.14 52.2853 136.99 52.6639L167.795 66.3891C168.645 66.768 168.937 67.6078 168.446 68.264L145.992 98.2773ZM80.2442 116.453C79.7533 117.11 78.6654 117.335 77.8148 116.956L47.0105 103.231C46.16 102.852 45.8686 102.012 46.3596 101.356L68.8129 71.3427C69.3042 70.686 70.3917 70.4614 71.2423 70.84L102.047 84.5653C102.897 84.9441 103.189 85.784 102.698 86.4401L80.2442 116.453ZM221.553 133.872C221.062 134.529 219.974 134.754 219.123 134.375L188.319 120.65C187.469 120.271 187.177 119.431 187.668 118.775L210.122 88.7615C210.613 88.1048 211.7 87.8802 212.551 88.2589L243.355 101.984C244.206 102.363 244.497 103.203 244.006 103.859L221.553 133.872ZM258.762 150.534C258.271 151.19 257.183 151.415 256.332 151.036L225.528 137.311C224.678 136.932 224.386 136.092 224.877 135.436L247.33 105.423C247.822 104.766 248.909 104.542 249.76 104.92L280.564 118.645C281.415 119.024 281.706 119.864 281.215 120.52L258.762 150.534ZM115.269 139.316L71.4733 197.856C70.9824 198.513 69.8945 198.738 69.044 198.358L0.889448 167.991C0.0389028 167.613 -0.252465 166.773 0.238461 166.116L44.0338 107.576C44.525 106.919 45.6126 106.694 46.4631 107.073L114.618 137.44C115.468 137.82 115.76 138.659 115.269 139.316ZM378.769 125.907L334.973 184.447C334.482 185.104 333.395 185.328 332.544 184.949L264.389 154.582C263.539 154.203 263.248 153.364 263.738 152.707L307.534 94.1667C308.025 93.51 309.113 93.2851 309.963 93.664L378.118 124.031C378.968 124.41 379.26 125.25 378.769 125.907ZM82.6864 195.396C83.026 195.018 83.7778 194.888 84.366 195.106L105.66 203.024C105.66 204.709 119.064 209.936 111.886 206.559L99.2617 225.977C98.9223 226.356 89.4972 221.928 88.9092 221.71L67.6149 213.792C67.0269 213.573 66.8255 213.089 67.1648 212.71L82.6864 195.396ZM140.05 174.13L117.597 204.143C117.106 204.8 116.018 205.025 115.167 204.645L84.3631 190.921C83.5125 190.542 83.2212 189.702 83.7121 189.045L106.165 159.032C106.657 158.376 107.744 158.151 108.595 158.53L139.399 172.255C140.25 172.634 140.541 173.474 140.05 174.13ZM133.065 123.076C133.556 122.419 134.644 122.195 135.494 122.573L166.299 136.299C167.149 136.678 167.441 137.517 166.95 138.174L144.496 168.187C144.005 168.843 142.918 169.069 142.067 168.689L111.262 154.964C110.412 154.585 110.12 153.746 110.612 153.089L133.065 123.076ZM157.668 160.188L188.472 173.914C189.323 174.292 189.614 175.132 189.123 175.788L148.885 229.574C148.394 230.231 147.306 230.456 146.456 230.077L115.651 216.351C114.801 215.972 114.509 215.133 115 214.477L155.239 160.69C155.73 160.034 156.817 159.809 157.668 160.188ZM205.164 27.7464C205.655 27.09 206.743 26.8651 207.594 27.2443L238.398 40.9698C239.249 41.3486 239.54 42.188 239.049 42.8444L198.811 96.6305C198.319 97.2869 197.232 97.5121 196.381 97.1329L165.577 83.4075C164.727 83.0283 164.435 82.1895 164.926 81.5328L205.164 27.7464ZM166.133 212.695C166.625 212.038 167.712 211.813 168.563 212.192L199.367 225.917C200.218 226.297 200.509 227.136 200.018 227.793L177.564 257.806C177.074 258.462 175.986 258.687 175.135 258.308L144.331 244.583C143.48 244.204 143.189 243.364 143.68 242.708L166.133 212.695ZM110.879 219.626C111.371 218.97 112.458 218.745 113.309 219.124L144.113 232.849C144.964 233.228 145.255 234.068 144.764 234.724L122.311 264.737C121.82 265.394 120.732 265.619 119.881 265.24L89.077 251.515C88.2264 251.136 87.935 250.296 88.426 249.639L110.879 219.626ZM96.0043 35.9466C96.4956 35.2899 97.5831 35.065 98.434 35.4444L129.238 49.1694C130.089 49.5485 130.38 50.3878 129.889 51.0445L107.436 81.0575C106.945 81.7142 105.857 81.9388 105.006 81.5597L74.202 67.8347C73.3514 67.4558 73.06 66.6157 73.551 65.9596L96.0043 35.9466ZM170.135 207.345L192.588 177.333C193.08 176.676 194.167 176.451 195.018 176.83L225.822 190.555C226.673 190.934 226.964 191.774 226.473 192.43L204.02 222.443C203.529 223.1 202.441 223.325 201.59 222.946L170.786 209.22C169.935 208.841 169.644 208.002 170.135 207.345ZM274.363 204.54L296.817 174.527C297.308 173.87 298.396 173.645 299.247 174.024L330.051 187.749C330.901 188.129 331.193 188.968 330.702 189.624L308.248 219.638C307.757 220.294 306.669 220.519 305.819 220.14L275.014 206.415C274.164 206.036 273.873 205.196 274.363 204.54ZM214.863 83.1795L237.317 53.1668C237.808 52.5101 238.896 52.2852 239.747 52.6638L270.551 66.3893C271.401 66.7687 271.693 67.6078 271.202 68.2639L248.748 98.2775C248.257 98.9342 247.169 99.159 246.319 98.7801L215.514 85.0547C214.664 84.6755 214.373 83.8362 214.863 83.1795ZM252.051 100.399L274.504 70.3867C274.996 69.73 276.083 69.5052 276.934 69.8838L307.738 83.6093C308.589 83.9887 308.88 84.8277 308.389 85.4839L285.936 115.497C285.445 116.154 284.357 116.379 283.506 116L252.702 102.275C251.851 101.895 251.56 101.056 252.051 100.399ZM258.567 158.127C259.058 157.47 260.146 157.245 260.997 157.624L291.801 171.349C292.651 171.729 292.943 172.568 292.452 173.224L269.998 203.237C269.507 203.894 268.419 204.119 267.569 203.74L236.764 190.015C235.914 189.635 235.623 188.796 236.113 188.139L258.567 158.127ZM301.067 35.0228C301.558 34.3662 302.646 34.1413 303.497 34.5199L334.301 48.2454C335.151 48.6248 335.443 49.4638 334.952 50.12L312.498 80.1335C312.007 80.7902 310.919 81.0151 310.069 80.6362L279.264 66.9107C278.414 66.5316 278.123 65.6923 278.613 65.0356L301.067 35.0228ZM263.879 17.3288C264.371 16.6721 265.458 16.4472 266.309 16.8258L297.113 30.5513C297.964 30.9307 298.255 31.7697 297.764 32.4259L275.311 62.4395C274.82 63.0961 273.732 63.321 272.881 62.9421L242.077 49.2166C241.226 48.8375 240.935 47.9982 241.426 47.3415L263.879 17.3288ZM181.926 259.48L204.379 229.467C204.871 228.81 205.958 228.585 206.809 228.964L237.613 242.689C238.464 243.069 238.755 243.908 238.264 244.564L215.811 274.578C215.32 275.234 214.232 275.459 213.381 275.08L182.577 261.355C181.726 260.976 181.435 260.136 181.926 259.48ZM219.113 276.7L241.567 246.687C242.058 246.03 243.146 245.805 243.997 246.184L274.801 259.909C275.651 260.289 275.943 261.128 275.452 261.784L252.998 291.797C252.507 292.454 251.419 292.679 250.569 292.3L219.764 278.575C218.914 278.196 218.623 277.356 219.113 276.7Z" transform="translate(111 -11)" fill="white"/>
<path fill-rule="evenodd" clip-rule="evenodd" d="M115.269 32.4267L71.4733 90.9667C70.9824 91.6236 69.8945 91.8485 69.044 91.4691L0.889448 61.1023C0.0389028 60.7234 -0.252465 59.8839 0.238461 59.2269L44.0338 0.686703C44.525 0.0300143 45.6126 -0.194853 46.4631 0.184026L114.618 30.5513C115.468 30.9305 115.76 31.7698 115.269 32.4267Z" transform="translate(111 95.8892)" fill="#008AF3"/>
<path fill-rule="evenodd" clip-rule="evenodd" d="M34.1231 45.7973C33.6322 46.454 32.5443 46.6788 31.6938 46.2997L0.889448 32.5747C0.0389028 32.1956 -0.252465 31.3558 0.238461 30.6996L22.6918 0.686584C23.1831 0.0298955 24.2706 -0.194705 25.1212 0.183907L55.9255 13.9091C56.776 14.288 57.0677 15.1278 56.5765 15.784L34.1231 45.7973Z" transform="translate(196.147 77.1691)" fill="#2F80ED"/>
<path fill-rule="evenodd" clip-rule="evenodd" d="M207.252 174.473L184.799 204.487C184.308 205.144 183.22 205.368 182.369 204.99L114.215 174.622C113.364 174.243 113.073 173.404 113.564 172.747L136.017 142.734C136.508 142.078 137.596 141.853 138.447 142.231L206.601 172.599C207.451 172.978 207.743 173.817 207.252 174.473ZM256.056 243.946L233.602 273.96C233.111 274.616 232.023 274.841 231.173 274.462L163.018 244.095C162.168 243.715 161.876 242.876 162.367 242.22L184.821 212.206C185.312 211.55 186.4 211.325 187.25 211.704L255.405 242.071C256.255 242.451 256.547 243.29 256.056 243.946ZM360.181 108.646L337.727 138.659C337.236 139.316 336.148 139.541 335.298 139.162L267.143 108.795C266.293 108.415 266.001 107.576 266.492 106.92L288.946 76.9064C289.437 76.2503 290.525 76.0251 291.375 76.4038L359.53 106.771C360.38 107.15 360.672 107.99 360.181 108.646ZM147.643 47.4432L125.468 80.2495C124.983 80.9673 123.908 81.2128 123.068 80.799L55.7573 47.6057C54.9173 47.1913 54.6296 46.2742 55.1144 45.5567L77.2899 12.7503C77.7751 12.0331 78.8492 11.7871 79.6895 12.2009L147 45.3942C147.84 45.8086 148.128 46.726 147.643 47.4432ZM125.341 150.358C124.85 151.014 123.762 151.239 122.911 150.86L92.1075 137.135C91.2566 136.756 90.9652 135.916 91.4565 135.26L113.91 105.247C114.401 104.59 115.489 104.365 116.339 104.744L147.143 118.47C147.994 118.849 148.285 119.688 147.794 120.345L125.341 150.358ZM73.1495 151.966C72.6585 152.623 71.5707 152.848 70.7201 152.469L39.9158 138.744C39.0653 138.365 38.7739 137.525 39.2648 136.869L61.7182 106.856C62.2095 106.199 63.297 105.974 64.1475 106.353L94.9518 120.078C95.8024 120.457 96.0941 121.297 95.6028 121.953L73.1495 151.966ZM99.8711 116.277C99.3802 116.934 98.2923 117.159 97.4418 116.78L66.6375 103.055C65.7869 102.676 65.4956 101.836 65.9865 101.18L88.4399 71.1666C88.9311 70.5099 90.0187 70.2853 90.8692 70.6639L121.674 84.3891C122.524 84.768 122.816 85.6078 122.325 86.264L99.8711 116.277ZM34.1231 134.453C33.6322 135.11 32.5443 135.335 31.6938 134.956L0.889448 121.231C0.0389028 120.852 -0.252465 120.012 0.238461 119.356L22.6918 89.3427C23.1831 88.686 24.2706 88.4614 25.1212 88.84L55.9255 102.565C56.776 102.944 57.0677 103.784 56.5765 104.44L34.1231 134.453ZM175.432 151.872C174.941 152.529 173.853 152.754 173.002 152.375L142.198 138.65C141.348 138.271 141.056 137.431 141.547 136.775L164 106.762C164.492 106.105 165.579 105.88 166.43 106.259L197.234 119.984C198.085 120.363 198.376 121.203 197.885 121.859L175.432 151.872ZM212.641 168.534C212.15 169.19 211.062 169.415 210.211 169.036L179.407 155.311C178.556 154.932 178.265 154.092 178.756 153.436L201.209 123.423C201.701 122.766 202.788 122.542 203.639 122.92L234.443 136.646C235.294 137.024 235.585 137.864 235.094 138.52L212.641 168.534ZM332.648 143.907L288.852 202.447C288.361 203.104 287.273 203.328 286.423 202.949L218.268 172.582C217.418 172.203 217.126 171.364 217.617 170.707L261.413 112.167C261.904 111.51 262.991 111.285 263.842 111.664L331.997 142.031C332.847 142.41 333.139 143.25 332.648 143.907ZM33.7143 212.594C34.2056 211.938 35.2931 211.712 36.144 212.091L66.9479 225.817C67.7988 226.196 68.0902 227.035 67.5989 227.691L45.1455 257.705C44.6546 258.362 43.5668 258.586 42.7162 258.208L11.9119 244.482C11.0614 244.103 10.77 243.264 11.2609 242.607L33.7143 212.594ZM93.929 192.13L71.4756 222.143C70.9847 222.8 69.8968 223.025 69.0463 222.645L38.242 208.921C37.3914 208.542 37.1001 207.702 37.591 207.045L60.0444 177.032C60.5356 176.376 61.6232 176.151 62.4737 176.53L93.278 190.255C94.1289 190.634 94.4203 191.474 93.929 192.13ZM86.944 141.076C87.435 140.419 88.5228 140.195 89.3734 140.573L120.178 154.299C121.028 154.678 121.32 155.517 120.829 156.174L98.3753 186.187C97.884 186.843 96.7965 187.068 95.9456 186.689L65.1413 172.964C64.2907 172.585 63.9994 171.746 64.4907 171.089L86.944 141.076ZM111.547 178.188L142.351 191.914C143.202 192.292 143.493 193.132 143.002 193.788L102.764 247.574C102.273 248.231 101.185 248.456 100.335 248.077L69.5302 234.351C68.6797 233.972 68.388 233.133 68.8792 232.477L109.118 178.69C109.608 178.034 110.696 177.809 111.547 178.188ZM154.69 50.635C155.124 50.0277 156.086 49.8197 156.839 50.1704L184.092 62.8689C184.844 63.2194 185.102 63.9959 184.668 64.6032L149.068 114.365C148.634 114.972 147.672 115.18 146.919 114.83L119.666 102.131C118.913 101.78 118.655 101.004 119.09 100.397L154.69 50.635ZM120.012 230.695C120.503 230.038 121.591 229.813 122.442 230.192L153.246 243.917C154.097 244.297 154.388 245.136 153.897 245.793L131.443 275.806C130.952 276.462 129.865 276.687 129.014 276.308L98.2098 262.583C97.3592 262.204 97.0678 261.364 97.5588 260.708L120.012 230.695ZM64.7582 237.627C65.2495 236.97 66.337 236.745 67.1879 237.124L97.9922 250.849C98.8428 251.229 99.1341 252.068 98.6429 252.725L76.1895 282.738C75.6986 283.394 74.6107 283.619 73.7602 283.24L42.9559 269.515C42.1053 269.136 41.8139 268.296 42.3049 267.64L64.7582 237.627ZM49.8832 53.9466C50.3745 53.2899 51.462 53.065 52.3129 53.4444L83.1172 67.1694C83.9678 67.5485 84.2591 68.3878 83.7679 69.0445L61.3145 99.0575C60.8236 99.7142 59.7357 99.9388 58.8852 99.5597L28.0809 85.8347C27.2303 85.4558 26.9389 84.6157 27.4299 83.9596L49.8832 53.9466ZM124.014 225.345L146.467 195.333C146.958 194.676 148.046 194.451 148.897 194.83L179.701 208.555C180.552 208.935 180.843 209.774 180.352 210.43L157.899 240.443C157.408 241.1 156.32 241.325 155.469 240.946L124.665 227.221C123.814 226.841 123.523 226.002 124.014 225.345ZM228.242 222.539L250.696 192.527C251.187 191.87 252.275 191.645 253.125 192.024L283.93 205.749C284.78 206.129 285.072 206.968 284.581 207.624L262.127 237.637C261.636 238.294 260.548 238.519 259.698 238.14L228.893 224.415C228.043 224.035 227.751 223.196 228.242 222.539ZM168.742 101.18L191.196 71.1668C191.687 70.5101 192.775 70.2852 193.625 70.6638L224.43 84.3893C225.28 84.7687 225.572 85.6078 225.081 86.2639L202.627 116.277C202.136 116.934 201.048 117.159 200.198 116.78L169.393 103.055C168.543 102.676 168.251 101.836 168.742 101.18ZM205.93 118.399L228.383 88.3867C228.875 87.73 229.962 87.5052 230.813 87.8838L261.617 101.609C262.468 101.989 262.759 102.828 262.268 103.484L239.815 133.497C239.324 134.154 238.236 134.379 237.385 134L206.581 120.275C205.73 119.895 205.439 119.056 205.93 118.399ZM212.446 176.127C212.937 175.47 214.025 175.245 214.875 175.624L245.68 189.349C246.53 189.729 246.822 190.568 246.331 191.224L223.877 221.238C223.386 221.894 222.298 222.119 221.448 221.74L190.643 208.015C189.793 207.636 189.501 206.796 189.992 206.14L212.446 176.127ZM254.946 53.0228C255.437 52.3662 256.525 52.1413 257.375 52.5199L288.18 66.2454C289.03 66.6248 289.322 67.4638 288.831 68.12L266.377 98.1335C265.886 98.7902 264.798 99.0151 263.948 98.6362L233.143 84.9107C232.293 84.5316 232.001 83.6923 232.492 83.0356L254.946 53.0228ZM217.758 35.3288C218.25 34.6721 219.337 34.4472 220.188 34.8258L250.992 48.5513C251.843 48.9307 252.134 49.7697 251.643 50.4259L229.19 80.4395C228.699 81.0961 227.611 81.321 226.76 80.9421L195.956 67.2166C195.105 66.8375 194.814 65.9982 195.305 65.3415L217.758 35.3288ZM135.805 277.48L158.258 247.467C158.75 246.81 159.837 246.585 160.688 246.964L191.492 260.689C192.343 261.069 192.634 261.908 192.143 262.564L169.69 292.578C169.199 293.234 168.111 293.459 167.26 293.08L136.456 279.355C135.605 278.976 135.314 278.136 135.805 277.48ZM172.992 294.7L195.446 264.687C195.937 264.03 197.025 263.805 197.875 264.184L228.68 277.909C229.53 278.289 229.822 279.128 229.331 279.784L206.877 309.797C206.386 310.454 205.298 310.679 204.448 310.3L173.643 296.575C172.793 296.196 172.501 295.356 172.992 294.7ZM732.252 156.473L709.799 186.487C709.308 187.144 708.22 187.368 707.369 186.99L639.215 156.622C638.364 156.243 638.073 155.404 638.564 154.747L661.017 124.734C661.508 124.078 662.596 123.853 663.447 124.231L731.601 154.599C732.451 154.978 732.743 155.817 732.252 156.473ZM781.056 225.946L758.602 255.96C758.111 256.616 757.023 256.841 756.173 256.462L688.018 226.095C687.168 225.715 686.876 224.876 687.367 224.22L709.821 194.206C710.312 193.55 711.4 193.325 712.25 193.704L780.405 224.071C781.255 224.451 781.547 225.29 781.056 225.946ZM885.181 90.6459L862.727 120.659C862.236 121.316 861.148 121.541 860.298 121.162L792.143 90.7946C791.293 90.4155 791.001 89.5764 791.492 88.92L813.946 58.9064C814.437 58.2503 815.525 58.0252 816.375 58.4038L884.53 88.7713C885.38 89.1505 885.672 89.9898 885.181 90.6459ZM673.743 32.426L651.29 62.4395C650.799 63.0962 649.711 63.3208 648.86 62.9422L580.706 32.5746C579.855 32.1955 579.564 31.3564 580.055 30.7L602.508 0.686467C603 0.0303137 604.087 -0.194821 604.938 0.183791L673.092 30.5514C673.943 30.9305 674.234 31.7698 673.743 32.426ZM650.341 132.358C649.85 133.014 648.762 133.239 647.911 132.86L617.107 119.135C616.257 118.756 615.965 117.916 616.456 117.26L638.91 87.2466C639.401 86.5905 640.489 86.3653 641.339 86.7445L672.143 100.47C672.994 100.849 673.285 101.688 672.794 102.345L650.341 132.358ZM598.149 133.966C597.659 134.623 596.571 134.848 595.72 134.469L564.916 120.744C564.065 120.365 563.774 119.525 564.265 118.869L586.718 88.8555C587.209 88.1988 588.297 87.9742 589.148 88.3529L619.952 102.078C620.802 102.457 621.094 103.297 620.603 103.953L598.149 133.966ZM624.871 98.2773C624.38 98.934 623.292 99.1588 622.442 98.7797L591.638 85.0547C590.787 84.6756 590.496 83.8357 590.987 83.1796L613.44 53.1666C613.931 52.5099 615.019 52.2853 615.869 52.6639L646.674 66.3891C647.524 66.768 647.816 67.6078 647.325 68.264L624.871 98.2773ZM559.123 116.454C558.632 117.11 557.544 117.335 556.694 116.956L525.889 103.231C525.039 102.852 524.748 102.012 525.238 101.356L547.692 71.3428C548.183 70.6861 549.271 70.4615 550.121 70.8402L580.925 84.5654C581.776 84.9443 582.068 85.7841 581.576 86.4403L559.123 116.454ZM700.432 133.872C699.941 134.529 698.853 134.754 698.002 134.375L667.198 120.65C666.348 120.271 666.056 119.431 666.547 118.775L689 88.7615C689.492 88.1048 690.579 87.8802 691.43 88.2589L722.234 101.984C723.085 102.363 723.376 103.203 722.885 103.859L700.432 133.872ZM737.641 150.534C737.15 151.19 736.062 151.415 735.211 151.036L704.407 137.311C703.557 136.932 703.265 136.092 703.756 135.436L726.209 105.423C726.701 104.766 727.788 104.542 728.639 104.92L759.443 118.645C760.294 119.024 760.585 119.864 760.094 120.52L737.641 150.534ZM594.148 139.316L550.352 197.856C549.861 198.513 548.773 198.738 547.923 198.358L479.768 167.991C478.918 167.613 478.626 166.773 479.117 166.116L522.913 107.576C523.404 106.919 524.491 106.694 525.342 107.073L593.497 137.44C594.347 137.82 594.639 138.659 594.148 139.316ZM857.648 125.907L813.852 184.447C813.361 185.104 812.273 185.328 811.423 184.949L743.268 154.582C742.418 154.203 742.126 153.364 742.617 152.707L786.413 94.1667C786.904 93.51 787.991 93.2851 788.842 93.664L856.997 124.031C857.847 124.41 858.139 125.25 857.648 125.907ZM561.565 195.396C561.905 195.018 562.657 194.888 563.245 195.106L584.539 203.024C584.539 204.709 597.943 209.936 590.765 206.559L578.141 225.977C577.801 226.356 568.376 221.928 567.788 221.71L546.494 213.792C545.906 213.573 545.704 213.089 546.044 212.71L561.565 195.396ZM618.929 174.13L596.476 204.143C595.985 204.8 594.897 205.025 594.046 204.645L563.242 190.921C562.391 190.542 562.1 189.702 562.591 189.045L585.044 159.032C585.536 158.376 586.623 158.151 587.474 158.53L618.278 172.255C619.129 172.634 619.42 173.474 618.929 174.13ZM611.944 123.076C612.435 122.419 613.523 122.195 614.373 122.573L645.178 136.299C646.028 136.678 646.32 137.517 645.829 138.174L623.375 168.187C622.884 168.843 621.797 169.069 620.946 168.689L590.141 154.964C589.291 154.585 588.999 153.746 589.491 153.089L611.944 123.076ZM636.547 160.188L667.351 173.914C668.202 174.292 668.493 175.132 668.002 175.788L627.764 229.574C627.273 230.231 626.185 230.456 625.335 230.077L594.53 216.351C593.68 215.972 593.388 215.133 593.879 214.477L634.117 160.69C634.608 160.034 635.696 159.809 636.547 160.188ZM684.043 27.7464C684.534 27.09 685.622 26.8651 686.473 27.2443L717.277 40.9698C718.127 41.3486 718.419 42.188 717.928 42.8444L677.69 96.6305C677.198 97.2869 676.111 97.5121 675.26 97.1329L644.456 83.4075C643.605 83.0283 643.314 82.1895 643.805 81.5328L684.043 27.7464ZM645.012 212.695C645.503 212.038 646.591 211.813 647.442 212.192L678.246 225.917C679.097 226.297 679.388 227.136 678.897 227.793L656.443 257.806C655.952 258.462 654.865 258.687 654.014 258.308L623.21 244.583C622.359 244.204 622.068 243.364 622.559 242.708L645.012 212.695ZM589.758 219.626C590.25 218.97 591.337 218.745 592.188 219.124L622.992 232.849C623.843 233.228 624.134 234.068 623.643 234.724L601.19 264.737C600.699 265.394 599.611 265.619 598.76 265.24L567.956 251.515C567.105 251.136 566.814 250.296 567.305 249.639L589.758 219.626ZM574.883 35.9466C575.375 35.2899 576.462 35.065 577.313 35.4444L608.117 49.1694C608.968 49.5485 609.259 50.3878 608.768 51.0445L586.315 81.0575C585.824 81.7142 584.736 81.9388 583.885 81.5597L553.081 67.8347C552.23 67.4558 551.939 66.6157 552.43 65.9596L574.883 35.9466ZM649.014 207.345L671.467 177.333C671.958 176.676 673.046 176.451 673.897 176.83L704.701 190.555C705.552 190.934 705.843 191.774 705.352 192.43L682.899 222.443C682.408 223.1 681.32 223.325 680.469 222.946L649.665 209.22C648.814 208.841 648.523 208.002 649.014 207.345ZM753.242 204.54L775.696 174.527C776.187 173.87 777.275 173.645 778.125 174.024L808.93 187.749C809.78 188.129 810.072 188.968 809.581 189.624L787.127 219.638C786.636 220.294 785.548 220.519 784.698 220.14L753.893 206.415C753.043 206.036 752.751 205.196 753.242 204.54ZM693.742 83.1795L716.196 53.1668C716.687 52.5101 717.775 52.2852 718.625 52.6638L749.43 66.3893C750.28 66.7687 750.572 67.6078 750.081 68.2639L727.627 98.2775C727.136 98.9342 726.048 99.159 725.198 98.7801L694.393 85.0547C693.543 84.6755 693.251 83.8362 693.742 83.1795ZM730.93 100.399L753.383 70.3867C753.875 69.73 754.962 69.5052 755.813 69.8838L786.617 83.6093C787.468 83.9887 787.759 84.8277 787.268 85.4839L764.815 115.497C764.324 116.154 763.236 116.379 762.385 116L731.581 102.275C730.73 101.895 730.439 101.056 730.93 100.399ZM737.446 158.127C737.937 157.47 739.025 157.245 739.875 157.624L770.68 171.349C771.53 171.729 771.822 172.568 771.331 173.224L748.877 203.237C748.386 203.894 747.298 204.119 746.448 203.74L715.643 190.015C714.793 189.635 714.501 188.796 714.992 188.139L737.446 158.127ZM779.946 35.023C780.437 34.3663 781.525 34.1414 782.375 34.52L813.18 48.2455C814.03 48.6249 814.322 49.464 813.831 50.1201L791.377 80.1337C790.886 80.7904 789.798 81.0152 788.948 80.6363L758.143 66.9109C757.293 66.5317 757.001 65.6924 757.492 65.0357L779.946 35.023ZM742.758 17.3286C743.25 16.6719 744.337 16.4471 745.188 16.8257L775.992 30.5512C776.843 30.9306 777.134 31.7696 776.643 32.4258L754.19 62.4393C753.699 63.096 752.611 63.3209 751.76 62.942L720.956 49.2165C720.105 48.8374 719.814 47.9981 720.305 47.3414L742.758 17.3286ZM660.805 259.48L683.258 229.467C683.75 228.81 684.837 228.585 685.688 228.964L716.492 242.689C717.343 243.069 717.634 243.908 717.143 244.564L694.69 274.578C694.199 275.234 693.111 275.459 692.26 275.08L661.456 261.355C660.605 260.976 660.314 260.136 660.805 259.48ZM697.992 276.7L720.446 246.687C720.937 246.03 722.025 245.805 722.875 246.184L753.68 259.909C754.53 260.289 754.822 261.128 754.331 261.784L731.877 291.797C731.386 292.454 730.298 292.679 729.448 292.3L698.643 278.575C697.793 278.196 697.501 277.356 697.992 276.7Z" transform="translate(-112.879 129)" fill="white"/>
</g>
</svg>
