<svg width="82" height="49" viewBox="0 0 82 49" fill="none" xmlns="http://www.w3.org/2000/svg">
<path d="M13.38 6.396H16.138L17.804 12.122C17.8787 12.374 17.9627 12.724 18.056 13.172C18.1587 13.6107 18.224 13.9 18.252 14.04H18.322C18.35 13.8907 18.406 13.592 18.49 13.144C18.574 12.6867 18.6487 12.346 18.714 12.122L20.394 6.396H23.054V16H21.262V9.798C21.262 9.52733 21.2714 9.224 21.29 8.888C21.3087 8.54267 21.3227 8.30467 21.332 8.174H21.248C21.1734 8.49133 21.08 8.846 20.968 9.238L18.994 16H17.342L15.382 9.238C15.3167 9.02333 15.2514 8.78067 15.186 8.51L15.102 8.174H15.032C15.0414 8.30467 15.0507 8.538 15.06 8.874C15.0787 9.21 15.088 9.518 15.088 9.798V16H13.38V6.396ZM27.7442 16.168C26.5495 16.168 25.6628 15.8553 25.0842 15.23C24.5055 14.6047 24.2162 13.634 24.2162 12.318C24.2162 11.002 24.5055 10.0313 25.0842 9.406C25.6722 8.78067 26.5588 8.468 27.7442 8.468C28.8268 8.468 29.6342 8.77133 30.1662 9.378C30.7075 9.98467 30.9782 10.932 30.9782 12.22V12.724H25.9242C25.9522 13.452 26.1062 13.9887 26.3862 14.334C26.6755 14.67 27.1328 14.838 27.7582 14.838C28.2248 14.838 28.6028 14.7213 28.8922 14.488C29.1815 14.2453 29.3262 13.8907 29.3262 13.424H30.9782C30.9782 14.3293 30.6795 15.0153 30.0822 15.482C29.4848 15.9393 28.7055 16.168 27.7442 16.168ZM29.2282 11.534C29.2282 10.3767 28.7335 9.798 27.7442 9.798C27.1842 9.798 26.7595 9.94267 26.4702 10.232C26.1902 10.512 26.0175 10.946 25.9522 11.534H29.2282ZM34.8935 16.168C33.8761 16.168 33.0875 15.958 32.5275 15.538C31.9768 15.118 31.7015 14.572 31.7015 13.9C31.7015 13.816 31.7015 13.76 31.7015 13.732C31.7108 13.704 31.7155 13.6853 31.7155 13.676H33.3535V13.788C33.3628 14.152 33.5168 14.4227 33.8155 14.6C34.1235 14.768 34.5061 14.852 34.9635 14.852C35.3741 14.852 35.7241 14.7867 36.0135 14.656C36.3028 14.516 36.4475 14.3107 36.4475 14.04C36.4475 13.8253 36.3681 13.6527 36.2095 13.522C36.0508 13.382 35.8548 13.2747 35.6215 13.2C35.3881 13.116 35.0568 13.0227 34.6275 12.92C34.0488 12.78 33.5728 12.64 33.1995 12.5C32.8355 12.36 32.5228 12.1407 32.2615 11.842C32.0001 11.5433 31.8695 11.1513 31.8695 10.666C31.8695 9.966 32.1588 9.42467 32.7375 9.042C33.3161 8.65933 34.0675 8.468 34.9915 8.468C35.5608 8.468 36.0695 8.552 36.5175 8.72C36.9655 8.888 37.3108 9.126 37.5535 9.434C37.8055 9.73267 37.9315 10.078 37.9315 10.47L37.9175 10.778H36.2795V10.722C36.2795 10.4327 36.1581 10.2087 35.9155 10.05C35.6821 9.882 35.3415 9.798 34.8935 9.798C34.4548 9.798 34.1235 9.868 33.8995 10.008C33.6755 10.1387 33.5635 10.3113 33.5635 10.526C33.5635 10.7873 33.6988 10.9833 33.9695 11.114C34.2495 11.2353 34.6741 11.3567 35.2435 11.478C35.8595 11.618 36.3541 11.7627 36.7275 11.912C37.1101 12.052 37.4415 12.276 37.7215 12.584C38.0015 12.892 38.1415 13.3073 38.1415 13.83C38.1415 14.642 37.8475 15.2347 37.2595 15.608C36.6808 15.9813 35.8921 16.168 34.8935 16.168ZM42.063 16.168C41.0456 16.168 40.257 15.958 39.697 15.538C39.1463 15.118 38.871 14.572 38.871 13.9C38.871 13.816 38.871 13.76 38.871 13.732C38.8803 13.704 38.885 13.6853 38.885 13.676H40.523V13.788C40.5323 14.152 40.6863 14.4227 40.985 14.6C41.293 14.768 41.6756 14.852 42.133 14.852C42.5436 14.852 42.8936 14.7867 43.183 14.656C43.4723 14.516 43.617 14.3107 43.617 14.04C43.617 13.8253 43.5376 13.6527 43.379 13.522C43.2203 13.382 43.0243 13.2747 42.791 13.2C42.5576 13.116 42.2263 13.0227 41.797 12.92C41.2183 12.78 40.7423 12.64 40.369 12.5C40.005 12.36 39.6923 12.1407 39.431 11.842C39.1696 11.5433 39.039 11.1513 39.039 10.666C39.039 9.966 39.3283 9.42467 39.907 9.042C40.4856 8.65933 41.237 8.468 42.161 8.468C42.7303 8.468 43.239 8.552 43.687 8.72C44.135 8.888 44.4803 9.126 44.723 9.434C44.975 9.73267 45.101 10.078 45.101 10.47L45.087 10.778H43.449V10.722C43.449 10.4327 43.3276 10.2087 43.085 10.05C42.8516 9.882 42.511 9.798 42.063 9.798C41.6243 9.798 41.293 9.868 41.069 10.008C40.845 10.1387 40.733 10.3113 40.733 10.526C40.733 10.7873 40.8683 10.9833 41.139 11.114C41.419 11.2353 41.8436 11.3567 42.413 11.478C43.029 11.618 43.5236 11.7627 43.897 11.912C44.2796 12.052 44.611 12.276 44.891 12.584C45.171 12.892 45.311 13.3073 45.311 13.83C45.311 14.642 45.017 15.2347 44.429 15.608C43.8503 15.9813 43.0616 16.168 42.063 16.168ZM48.2385 16.168C47.6412 16.168 47.0998 16.0233 46.6145 15.734C46.1385 15.4353 45.9005 14.8893 45.9005 14.096C45.9005 13.1533 46.3018 12.4907 47.1045 12.108C47.9072 11.7253 49.0458 11.534 50.5205 11.534V10.918C50.5205 10.5633 50.4272 10.288 50.2405 10.092C50.0632 9.896 49.7365 9.798 49.2605 9.798C48.7658 9.798 48.4158 9.87733 48.2105 10.036C48.0052 10.1947 47.9025 10.3907 47.9025 10.624V10.82H46.2785C46.2692 10.764 46.2645 10.6613 46.2645 10.512C46.2645 9.87733 46.5352 9.378 47.0765 9.014C47.6272 8.65 48.3552 8.468 49.2605 8.468C50.2405 8.468 50.9732 8.66867 51.4585 9.07C51.9532 9.47133 52.2005 10.0453 52.2005 10.792V14.306C52.2005 14.474 52.2472 14.6 52.3405 14.684C52.4338 14.7587 52.5505 14.796 52.6905 14.796H53.1385V15.944C52.8398 16.084 52.4898 16.154 52.0885 16.154C51.7245 16.154 51.4212 16.0653 51.1785 15.888C50.9358 15.7107 50.7725 15.468 50.6885 15.16H50.5905C50.0398 15.832 49.2558 16.168 48.2385 16.168ZM48.7425 14.824C49.2932 14.824 49.7272 14.6653 50.0445 14.348C50.3618 14.0307 50.5205 13.6013 50.5205 13.06V12.724C49.6152 12.724 48.9058 12.8127 48.3925 12.99C47.8792 13.158 47.6225 13.4707 47.6225 13.928C47.6225 14.5253 47.9958 14.824 48.7425 14.824ZM55.0938 18.548C54.5711 18.548 54.1231 18.394 53.7498 18.086C53.3858 17.7873 53.2038 17.3673 53.2038 16.826C53.2038 16.154 53.5865 15.6453 54.3518 15.3C54.1278 15.1787 53.9505 15.0247 53.8198 14.838C53.6891 14.6513 53.6238 14.432 53.6238 14.18C53.6238 13.8533 53.7451 13.5827 53.9878 13.368C54.2398 13.1533 54.5431 13.004 54.8978 12.92C54.5618 12.7053 54.3005 12.43 54.1138 12.094C53.9365 11.758 53.8478 11.38 53.8478 10.96C53.8478 10.1853 54.1231 9.57867 54.6738 9.14C55.2338 8.692 56.0131 8.468 57.0118 8.468C57.5718 8.468 58.0571 8.54267 58.4678 8.692C58.7665 8.51467 58.9858 8.314 59.1258 8.09C59.2658 7.85667 59.3451 7.63267 59.3638 7.418H60.9878C60.9878 7.90333 60.8525 8.30467 60.5818 8.622C60.3111 8.93933 59.9378 9.14933 59.4618 9.252C59.9471 9.70933 60.1898 10.2787 60.1898 10.96C60.1898 11.7347 59.9191 12.346 59.3778 12.794C58.8365 13.242 58.0758 13.466 57.0958 13.466H55.9478C55.7518 13.466 55.5978 13.508 55.4858 13.592C55.3738 13.676 55.3178 13.7927 55.3178 13.942C55.3178 14.082 55.3691 14.1987 55.4718 14.292C55.5745 14.376 55.7145 14.418 55.8918 14.418H59.1118C59.6625 14.418 60.1151 14.6 60.4698 14.964C60.8245 15.3187 61.0018 15.7713 61.0018 16.322C61.0018 16.7327 60.8945 17.106 60.6798 17.442C60.4651 17.7873 60.1571 18.058 59.7558 18.254C59.3638 18.45 58.9111 18.548 58.3978 18.548H55.0938ZM57.0258 12.276C57.5205 12.276 57.8938 12.164 58.1458 11.94C58.3978 11.7067 58.5238 11.38 58.5238 10.96C58.5238 10.54 58.3978 10.218 58.1458 9.994C57.8938 9.76067 57.5205 9.644 57.0258 9.644C56.5311 9.644 56.1578 9.76067 55.9058 9.994C55.6538 10.218 55.5278 10.54 55.5278 10.96C55.5278 11.3893 55.6538 11.716 55.9058 11.94C56.1578 12.164 56.5311 12.276 57.0258 12.276ZM58.3978 17.33C58.6591 17.33 58.8785 17.26 59.0558 17.12C59.2331 16.9893 59.3218 16.812 59.3218 16.588C59.3218 16.3547 59.2471 16.1727 59.0978 16.042C58.9485 15.9113 58.7525 15.846 58.5098 15.846H55.6818C55.4485 15.846 55.2571 15.916 55.1078 16.056C54.9678 16.196 54.8978 16.3733 54.8978 16.588C54.8978 16.812 54.9678 16.9893 55.1078 17.12C55.2571 17.26 55.4485 17.33 55.6818 17.33H58.3978ZM64.877 16.168C63.6823 16.168 62.7956 15.8553 62.217 15.23C61.6383 14.6047 61.349 13.634 61.349 12.318C61.349 11.002 61.6383 10.0313 62.217 9.406C62.805 8.78067 63.6916 8.468 64.877 8.468C65.9596 8.468 66.767 8.77133 67.299 9.378C67.8403 9.98467 68.111 10.932 68.111 12.22V12.724H63.057C63.085 13.452 63.239 13.9887 63.519 14.334C63.8083 14.67 64.2656 14.838 64.891 14.838C65.3576 14.838 65.7356 14.7213 66.025 14.488C66.3143 14.2453 66.459 13.8907 66.459 13.424H68.111C68.111 14.3293 67.8123 15.0153 67.215 15.482C66.6176 15.9393 65.8383 16.168 64.877 16.168ZM66.361 11.534C66.361 10.3767 65.8663 9.798 64.877 9.798C64.317 9.798 63.8923 9.94267 63.603 10.232C63.323 10.512 63.1503 10.946 63.085 11.534H66.361Z" transform="translate(0.956543 26)" fill="#2F80ED"/>
<path d="M2.15464e-06 1.41371e-06V13.808H10.3105L15.0722 19.1933V13.808H18.3618V1.41371e-06H2.15464e-06Z" transform="translate(36.0972)" fill="#2F80ED"/>
<path d="M15.27 8.17298H4.95536V-5.04898e-07H-5.01079e-08V11.821H2.82002V16.4312L6.89449 11.821H15.7223V8.68504L15.27 8.17298Z" transform="translate(29.8301 6.95447)" fill="#2F80ED"/>
</svg>
