<svg width="24" height="24" viewBox="0 0 24 24" fill="none" xmlns="http://www.w3.org/2000/svg">
<path d="M12.8571 12.8571C12.4286 12.8571 12 12.6857 11.6571 12.3429C10.9714 11.6571 10.9714 10.6286 11.6571 9.94286L21.0857 0.514286C21.7714 -0.171429 22.8 -0.171429 23.4857 0.514286C24.1714 1.2 24.1714 2.22857 23.4857 2.91429L14.0571 12.3429C13.7143 12.6857 13.2857 12.8571 12.8571 12.8571ZM21.4286 8.65714V19.7143C21.4286 20.6571 20.6571 21.4286 19.7143 21.4286H4.28571C3.34286 21.4286 2.57143 20.6571 2.57143 19.7143V4.28571C2.57143 3.34286 3.34286 2.57143 4.28571 2.57143H15.3429L17.9143 0H4.28571C1.97143 0 0 1.97143 0 4.28571V19.7143C0 22.1143 1.97143 24 4.28571 24H19.7143C22.1143 24 24 22.0286 24 19.7143V6.08571L21.4286 8.65714ZM9.42857 12L8.57143 14.5714C8.57143 15.0857 8.91429 15.4286 9.42857 15.4286L12 14.5714L9.42857 12Z" fill="white"/>
</svg>
