<svg width="4" height="3" viewBox="0 0 4 3" fill="none" xmlns="http://www.w3.org/2000/svg">
<path d="M2.73271 0.557075L1.87574 1.41412L2.73271 2.27113C2.86017 2.39865 2.86017 2.60521 2.73271 2.73273C2.66902 2.79642 2.58551 2.82829 2.50205 2.82829C2.41845 2.82829 2.33495 2.79647 2.2713 2.73273L1.41416 1.87562L0.557075 2.73272C0.493394 2.79641 0.409884 2.82828 0.326351 2.82828C0.242841 2.82828 0.159389 2.79646 0.0956502 2.73272C-0.0318184 2.60526 -0.0318184 2.39869 0.0956502 2.27113L0.952586 1.41412L0.0956015 0.557075C-0.0318672 0.429607 -0.0318672 0.222997 0.0956015 0.0955284C0.223046 -0.0318428 0.429534 -0.0318428 0.557027 0.0955284L1.41415 0.952578L2.27121 0.0955284C2.39872 -0.0318428 2.60524 -0.0318428 2.73266 0.0955284C2.86017 0.222997 2.86017 0.429607 2.73271 0.557075Z" transform="matrix(0.988566 0.00567678 0.00554932 1.01127 0.990723 0.0618896)" fill="#F9F9FA"/>
</svg>
