<svg width="71" height="71" viewBox="0 0 71 71" fill="none" xmlns="http://www.w3.org/2000/svg">
<path fill-rule="evenodd" clip-rule="evenodd" d="M35.5 0C15.904 0 0 15.904 0 35.5C0 55.096 15.904 71 35.5 71C55.096 71 71 55.096 71 35.5C71 15.904 55.096 0 35.5 0ZM35.5006 10.6499C41.3936 10.6499 46.1506 15.4069 46.1506 21.2999C46.1506 27.1929 41.3936 31.9499 35.5006 31.9499C29.6076 31.9499 24.8506 27.1929 24.8506 21.2999C24.8506 15.4069 29.6076 10.6499 35.5006 10.6499ZM35.4997 61.0599C26.6247 61.0599 18.7792 56.5159 14.1997 49.6289C14.3062 42.5644 28.3997 38.6949 35.4997 38.6949C42.5642 38.6949 56.6932 42.5644 56.7997 49.6289C52.2202 56.5159 44.3747 61.0599 35.4997 61.0599Z" fill="#2F80ED"/>
</svg>
